# xmcd CD database file
#
# Track frame offsets:
#	150
#	18607
#	36452
#	57420
#	78847
#	96827
#	116942
#	137897
#	152687
#	170707
#
# Disc length: 2509 seconds
#
# Revision: 1
# Processed by: cddbd v1.4PL0 Copyright (c) Steve Scherf et al.
# Submitted via: CDex 1.50
#
DISCID=8b09cb0a
DTITLE=EVE - Cherie
DYEAR=1987
DGENRE=JPop
TTITLE0=Bon Beat
TTITLE1=Jump In
TTITLE2=Cherie
TTITLE3=Do It To Me
TTITLE4=Sugar Sugar
TTITLE5=Love Somebody
TTITLE6=Rococo
TTITLE7=Divider
TTITLE8=Say Say
TTITLE9=Just You
EXTD=YEAR: 1987
EXTT0=
EXTT1=
EXTT2=
EXTT3=
EXTT4=
EXTT5=
EXTT6=
EXTT7=
EXTT8=
EXTT9=
PLAYORDER=
